<svg xmlns="http://www.w3.org/2000/svg" xmlns:xlink="http://www.w3.org/1999/xlink" width="500" zoomAndPan="magnify" viewBox="0 0 375 374.999991" height="500" preserveAspectRatio="xMidYMid meet" version="1.0"><defs><clipPath id="2435362c40"><path d="M 5.769531 37.5 L 259 37.5 L 259 322.5 L 5.769531 322.5 Z M 5.769531 37.5 " clip-rule="nonzero"/></clipPath><clipPath id="f2754a7364"><path d="M 79 163 L 369.519531 163 L 369.519531 322.5 L 79 322.5 Z M 79 163 " clip-rule="nonzero"/></clipPath></defs><rect x="-37.5" width="450" fill="#ffffff" y="-37.499999" height="449.999989" fill-opacity="1"/><rect x="-37.5" width="450" fill="#ffffff" y="-37.499999" height="449.999989" fill-opacity="1"/><rect x="-37.5" width="450" fill="#212529" y="-37.499999" height="449.999989" fill-opacity="1"/><g clip-path="url(#2435362c40)"><path fill="#0d6efd" d="M 93.511719 287.511719 L 5.945312 322.777344 L 71.75 215.773438 L 111.390625 258.347656 Z M 111.609375 150.96875 L 181.386719 37.5 L 258.410156 154.578125 L 219.199219 197.128906 L 182.660156 142.152344 L 151.058594 193.699219 Z M 111.609375 150.96875 " fill-opacity="1" fill-rule="evenodd"/></g><g clip-path="url(#f2754a7364)"><path fill="#ffffff" d="M 186.75 318.804688 L 79.320312 203.464844 L 104.027344 163.304688 L 186.75 252.894531 L 266.304688 166.578125 L 369.050781 322.816406 L 279.015625 287.121094 L 252.59375 247.363281 Z M 186.75 318.804688 " fill-opacity="1" fill-rule="evenodd"/></g></svg>